<svg xmlns="http://www.w3.org/2000/svg" enable-background="new 0 0 500 500" viewBox="0 0 500 500" id="online-election-vote">
  <g>
    <path fill="#E4EEFE" d="M107.74,357.93c-20.94-18.68-38.86-44.89-32.61-72.76c3.99-17.81,18.81-27.02,34.16-34.52
		c13.93-6.81,26.33-13.24,37.74-24.08c21.74-20.66,38.22-47.4,64.26-63.02c34.21-20.51,76.77-15.47,112.68-2.2
		c0.36,0.13,0.73,0.27,1.09,0.4c33.63,12.63,64.19,34.83,85.24,64.09c7.62,10.6,13.97,22.13,18.59,34.35
		c2.03,5.36,3.69,10.87,4.92,16.47c4.99,22.71-2.82,48.87-20.72,64.29c-22.4,19.3-53.47,21.43-79.86,32.43
		c-19.89,8.29-36.41,23.62-57.16,29.86c-17.62,5.3-36.59,4.22-54.6,1.78c-33.79-4.59-68.45-14.58-97.13-34.11
		C118.86,367.16,113.2,362.8,107.74,357.93z"></path>
    <g>
      <polygon fill="#E4EEFE" points="171.55 107.25 161.67 107.25 159.67 87.98 169.56 87.98"></polygon>
      <polygon fill="#E4EEFE" points="209.26 107.25 199.37 107.25 195.35 68.41 205.24 68.41"></polygon>
      <polygon fill="#E4EEFE" points="190.41 107.25 180.52 107.25 177.22 75.41 187.11 75.41"></polygon>
    </g>
    <g>
      <g>
        <g>
          <g>
            <g>
              <path fill="#2E344D" d="M76.18,332.74l0.88,1.16c0.06-0.04,6.36-4.66,14.08-2.27c8.1,2.5,14.81,11.45,19.97,26.57
							c9.11,26.71,12.4,37.6,13.57,41.94l1.41-0.34c-1.21-4.44-4.52-15.45-13.6-42.07c-5.34-15.61-12.37-24.86-20.95-27.5
							C83.11,327.64,76.47,332.52,76.18,332.74z"></path>
            </g>
          </g>
          <g>
            <g>
              <path fill="#94B566" d="M29.62,370.41c0.94,2.91,2.78,6.16,5.15,9.51c0.02-2.17,0.44-4.52,1.49-6.95
							c4.49-10.32,13.59-20.74,19.94-16.97c6.35,3.78-8.85,9.38-9.34,20.56c-0.25,5.7-1.77,10.54-2.25,15.03
							c8.95,9.32,23.88,20.85,23.88,20.85s-2.74-9.95,1.29-18.11c1.44-2.9,2.61-5.93,3.58-9.02c0.44-1.41,1.04-3.26,1.77-5.88
							c2.69-9.56-4.6-22.88,2.98-23.68c4.64-0.49,7.53,10.95,9.07,19.9c4.59-4.09,8.76-9.79,12.22-16.16
							c-3.3-10.02-15.49-16.4-12.71-19.83c2.11-2.6,10.7,5.3,16.7,11.42c7.14-17.29,8.74-36.3-0.15-41.3
							c-14.59-8.19-28.76,21.95-28.76,21.95s-8.99-15.97-27.27-9.39c-13.01,4.68-18.82,19.58-19.38,33.09
							c1.25-1.54,3.24-3.43,6.43-5.48c8.17-5.25,17.3-11.38,19.9-6.7c2.59,4.67-12.12,8.83-18.61,13.51
							c-3.57,2.58-6.01,4.03-7.39,6.81l0,0C28.47,366.04,28.95,368.34,29.62,370.41z M85.34,330.72c-0.39-2.7,2.75-6.17,6.38-7.09
							c3.62-0.92,8.55-1.04,8.84,1.99c0.29,3.08-5.23,4.34-8.56,4.94C88.67,331.16,85.74,333.41,85.34,330.72z M56.73,333.66
							c0.84-2.18,5.26-1.62,6.91-1.45c0,0,6.91,2.76,2.86,3.97C62.44,337.39,55.88,335.85,56.73,333.66z"></path>
            </g>
          </g>
          <g>
            <path fill="#2E344D" d="M62.79,383.2c-0.85-23.73,11.9-51.03,12.03-51.31l-0.66-0.31c-0.13,0.27-12.95,27.73-12.1,51.64
						L62.79,383.2z"></path>
          </g>
        </g>
        <g>
          <g>
            <g>
              <path fill="#2E344D" d="M111.03,300.35c1.52,4.53,3.78,12.23,6.41,21.6c0.29,1.06,0.59,2.13,0.91,3.23
							c8.81,31.76,21.13,79.75,24.7,93.73l1.41-0.34c-3.45-13.46-15.03-58.61-23.77-90.33c-0.35-1.28-0.7-2.54-1.03-3.77
							c-2.98-10.73-5.55-19.57-7.25-24.6c-2.23-6.63-2.12-11.27,0.34-13.83c3.95-4.12,12.83-1.58,12.92-1.56l0.41-1.39
							c-0.39-0.12-9.81-2.8-14.38,1.95C108.84,288.02,108.61,293.17,111.03,300.35z"></path>
            </g>
          </g>
          <g>
            <g>
              <g>
                <path fill="#94B566" d="M153.76,262.95L153.76,262.95c-2.39-0.08-4.26,1.05-7.3,2.53c-5.53,2.7-13.69,11.16-15.92,7.7
								c-2.22-3.46,5.25-7.41,11.77-11.04c2.55-1.42,4.55-2.08,6.05-2.37c-9.36-4.53-21.57-6.01-29.46,1.1
								c-11.09,9.99-3.54,21.89-3.54,21.89s-25.57-1.35-25.32,11.51c0.15,7.84,13.62,13.66,27.93,15.11
								c-1.97-6.29-4.19-14.98-1.67-15.46c3.34-0.64,3.23,9.93,8.82,15.81c5.57-0.03,10.95-0.78,15.39-2.4
								c-5.5-4.3-12.21-10.41-10.19-13.37c3.3-4.84,9.67,4.94,17.13,6.59c2.04,0.45,3.51,0.72,4.63,0.93
								c2.45,0.46,4.92,0.77,7.41,0.85c6.99,0.23,12.74,5.71,12.74,5.71s-2.38-14.3-5.45-23.76c-3.21-1.31-7.05-2.04-11-3.94
								c-7.76-3.74-17.07,4.53-17.33-1.15c-0.25-5.68,10.12-8.05,18.74-7.35c2.03,0.17,3.77,0.74,5.25,1.52
								c-1.4-2.82-2.94-5.25-4.57-6.94C156.69,265.22,155.31,264.05,153.76,262.95z M108.18,294.2c-1.62,2.04-4.48,5.32-6.46,4
								c-1.95-1.3-0.08-4.59,1.86-6.71c1.94-2.12,5.44-2.99,7.12-1.74C112.39,290.99,109.8,292.17,108.18,294.2z M121.26,278.96
								c-2.29,2.3-1.65-3.38-1.65-3.38c0.49-1.18,1.71-4.37,3.49-4.15C124.89,271.65,123.55,276.66,121.26,278.96z"></path>
              </g>
            </g>
          </g>
          <g>
            <path fill="#2E344D" d="M164.18,297.34c0.08-0.02,0.16-0.07,0.21-0.14c0.12-0.16,0.08-0.39-0.08-0.51
						c-7.2-5.31-14.85-6.73-22.24-8.11c-2.28-0.42-4.64-0.86-6.9-1.41c-9.41-2.27-19.25-4.69-19.25-4.69
						c-0.19-0.05-0.39,0.07-0.44,0.27c-0.05,0.2,0.07,0.39,0.27,0.44c0,0,9.84,2.42,19.25,4.69c2.28,0.55,4.65,0.99,6.94,1.42
						c7.32,1.36,14.88,2.77,21.94,7.98C163.96,297.34,164.07,297.36,164.18,297.34z"></path>
          </g>
        </g>
      </g>
    </g>
    <g>
      <g>
        <g>
          <g>
            <path fill="#2E344D" d="M264.38,148.95l21.89,267.41c0.68,8.34-5.52,15.1-13.86,15.1H127.45c-8.34,0-15.65-6.76-16.33-15.1
						L89.23,148.93c-0.68-8.34,5.52-15.1,13.86-15.1h38.41c3.42,0,6.42,2.77,6.7,6.19l0,0h55.77l0,0c-0.28-3.42,2.26-6.19,5.68-6.19
						h38.39C256.38,133.83,263.7,140.6,264.38,148.95z"></path>
          </g>
          <g>
            <path fill="#FFF" d="M134.58,423.03c-8.57,0-16.11-6.97-16.81-15.54L95.87,140.07c-0.34-4.18,0.97-8.1,3.69-11.06
						c2.71-2.94,6.49-4.56,10.65-4.56h144.95c8.58,0,16.12,6.98,16.83,15.55l21.89,267.41c0.34,4.18-0.97,8.1-3.69,11.06
						c-2.71,2.94-6.49,4.56-10.65,4.56H134.58z"></path>
            <g>
              <path fill="#2E344D" d="M255.15,124.93c8.35,0,15.67,6.77,16.35,15.11l21.89,267.41c0.68,8.34-5.52,15.1-13.86,15.1H134.58
							c-8.34,0-15.65-6.76-16.33-15.1L96.35,140.03c-0.68-8.34,5.52-15.1,13.86-15.1H255.15 M255.15,123.98H110.21
							c-4.29,0-8.2,1.67-11,4.71c-2.81,3.05-4.17,7.11-3.81,11.42l21.89,267.43c0.72,8.81,8.48,15.98,17.29,15.98h144.96
							c4.29,0,8.2-1.67,11-4.71c2.81-3.05,4.17-7.11,3.81-11.42l-21.89-267.41C271.73,131.15,263.97,123.98,255.15,123.98
							L255.15,123.98z"></path>
            </g>
          </g>
          <path fill="#E4EEFE" d="M134.22,415.31c-4.45,0-8.37-3.63-8.74-8.08L103.59,139.8c-0.17-2.06,0.47-3.98,1.79-5.41
					c1.31-1.42,3.16-2.21,5.2-2.21h31.36c3.51,0,6.43,2.69,6.72,6.19l0,0h70.29l0,0c-0.27-3.33,2.36-6.19,5.7-6.19h30.88
					c4.46,0,8.39,3.63,8.75,8.1l21.89,267.41c0.17,2.06-0.47,3.98-1.78,5.41c-1.31,1.42-3.16,2.21-5.2,2.21H134.22z"></path>
        </g>
      </g>
    </g>
    <g>
      <g>
        <path fill="#FFF" stroke="#2E344D" stroke-miterlimit="10" stroke-width="1.33" d="M256.7 215.68H170.1c-2.47 0-4.66-2-4.89-4.47l-2.32-25.11c-.23-2.47 1.59-4.47 4.06-4.47h86.61c2.47 0 4.66 2 4.89 4.47l2.32 25.11C260.99 213.68 259.17 215.68 256.7 215.68zM156.3 215.68h-29.27c-1.49 0-2.81-1.21-2.94-2.69l-2.65-28.67c-.14-1.49.96-2.69 2.45-2.69h29.27c1.49 0 2.81 1.21 2.94 2.69l2.65 28.67C158.89 214.48 157.79 215.68 156.3 215.68z"></path>
        <g>
          <ellipse cx="180.44" cy="193.11" fill="#B7CAE5" rx="5.96" ry="6.54" transform="rotate(-46.325 180.436 193.103)"></ellipse>
          <path fill="#B7CAE5" d="M190.8,210.44h-17.5l-0.52-5.57c-0.17-1.82,1.17-3.3,3-3.3h10.9c1.82,0,3.44,1.48,3.61,3.3L190.8,210.44
					z"></path>
        </g>
        <g>
          <polygon fill="#2E344D" points="252.05 195.01 195.82 195.01 195.64 193.07 251.87 193.07"></polygon>
          <polygon fill="#2E344D" points="240.87 204.24 196.67 204.24 196.49 202.3 240.69 202.3"></polygon>
        </g>
      </g>
      <g>
        <path fill="#FFF" stroke="#2E344D" stroke-miterlimit="10" stroke-width="1.33" d="M267.5 338.25H180.9c-2.47 0-4.66-2-4.89-4.47l-2.32-25.11c-.23-2.47 1.59-4.47 4.06-4.47h86.61c2.47 0 4.66 2 4.89 4.47l2.32 25.11C271.79 336.25 269.98 338.25 267.5 338.25zM167.1 338.25h-29.27c-1.49 0-2.81-1.21-2.94-2.69l-2.65-28.67c-.14-1.49.96-2.69 2.45-2.69h29.27c1.49 0 2.81 1.21 2.94 2.69l2.65 28.67C169.69 337.05 168.59 338.25 167.1 338.25z"></path>
        <g>
          <ellipse cx="191.24" cy="315.68" fill="#B7CAE5" rx="5.96" ry="6.54" transform="rotate(-46.325 191.236 315.668)"></ellipse>
          <path fill="#B7CAE5" d="M201.6,333.01h-17.5l-0.52-5.57c-0.17-1.82,1.17-3.3,3-3.3h10.9c1.82,0,3.44,1.48,3.61,3.3L201.6,333.01
					z"></path>
        </g>
        <g>
          <polygon fill="#2E344D" points="262.85 317.58 206.62 317.58 206.44 315.63 262.67 315.63"></polygon>
          <polygon fill="#2E344D" points="251.67 326.81 207.47 326.81 207.29 324.87 251.49 324.87"></polygon>
        </g>
      </g>
      <g>
        <polygon fill="#D65B6C" points="266.34 389.49 155.17 389.49 153.31 369.42 264.48 369.42"></polygon>
        <text fill="#FFF" font-family="'Poppins-Bold'" font-size="15.611" transform="matrix(.9957 0 .0922 .9957 189.743 385.004)">VOTE</text>
      </g>
    </g>
    <g>
      <g>
        <circle cx="410.69" cy="193.67" r="8.88" fill="#2E344D"></circle>
        <circle cx="419.94" cy="201.71" r="8.88" fill="#2E344D"></circle>
        <circle cx="412.62" cy="210.95" r="8.88" fill="#2E344D"></circle>
        <circle cx="407.09" cy="219.11" r="8.88" fill="#2E344D"></circle>
        <circle cx="397.85" cy="213.83" r="8.88" fill="#2E344D"></circle>
        <circle cx="402.89" cy="205.55" r="8.88" fill="#2E344D"></circle>
        <circle cx="400.01" cy="199.55" r="8.88" fill="#2E344D"></circle>
      </g>
      <g>
        <g>
          <path fill="#DF867F" d="M358.06,236.06c0,0-4.15,24.88-5.82,28.7s31.33,0.87,38.24-1.28c6.91-2.15,9.3-7.63,9.3-7.63
					s-9.3-24.32-6.68-34.81C395.73,210.55,358.06,236.06,358.06,236.06z"></path>
          <path fill="#DF867F" d="M364.9,240.31c14.14,1.91,26.11-13,31.51-27.33c5.4-14.34,11.03-65.92-20.35-67.82
					s-33.94,31.91-34.37,47.2C341.26,207.63,345.75,237.73,364.9,240.31z"></path>
          <path fill="none" stroke="#2E344D" stroke-linecap="round" stroke-linejoin="round" stroke-miterlimit="10" stroke-width=".6" d="
					M358.69,238.3c1.87,1.01,3.94,1.7,6.2,2.01c7,0.94,14.17-2.43,20.28-7.81"></path>
          <g>
            <ellipse cx="351.62" cy="193.37" fill="#2E344D" rx="2.9" ry="2.39" transform="rotate(-88.16 351.61 193.369)"></ellipse>
            <path fill="none" stroke="#2E344D" stroke-linecap="round" stroke-linejoin="round" stroke-miterlimit="10" stroke-width=".953" d="
						M360.35,205.56l-1.02,3.31c-0.45,1.45,0.56,2.95,2.07,3.08l0.71,0.06"></path>
            <path fill="#2E344D" d="M371.98 187.47c0 0 6.91-1.38 11.19 2.95L371.98 187.47zM356.48 186.48c0 0-4.97-2.58-10.62.84L356.48 186.48zM352.72 190.73c0 0-3.26-1.9-6.66.32 0 0 3.24-.27 5.11.69L352.72 190.73z"></path>
            <ellipse cx="374.17" cy="197.97" fill="#2E344D" rx="2.9" ry="2.39" transform="rotate(-88.16 374.16 197.97)"></ellipse>
            <path fill="#2E344D" d="M373.25,195.27c0,0,3.38-1.69,6.62,0.74c0,0-3.21-0.48-5.14,0.36L373.25,195.27z"></path>
            <path fill="#FFF" d="M367.53,220.65c0,0-6.77,10.64-10.99-1.58L367.53,220.65z"></path>
          </g>
          <path fill="#2E344D" d="M394.43,199.54c-2.11-8.25-1.4-14.39-13.72-21.06c-8.74-4.73-14.55-13.54-14.55-13.54
					s-13.96,0.79-24.13,18.87c0,0-1.84-45.31,36.03-39.98c38.44,5.41,36.49,45.92,25,54.95
					C401.18,200.26,394.43,199.54,394.43,199.54z"></path>
          <g>
            <path fill="#DF867F" d="M396.71,199.74c0,0,9.78-2.61,9.82,5.61c0.04,8.22-13.25,14.58-13.25,14.58L396.71,199.74z"></path>
            <path fill="#2E344D" d="M399.25,204.55c0,0,5.66,1-0.58,7.32L399.25,204.55z"></path>
          </g>
        </g>
      </g>
      <path fill="#EFBF50" d="M357.25,240.88c-0.68,0.68-20.41,1.58-42.79,7.01c0,0-2.52,15.01-2.34,29.03
			c0.23,17.4-1.28,16.65-2.41,33.15c-1.13,16.5,5.27,48.21,3.69,63.13s-4.57,28.74-4.29,32.09c0.38,4.64-2.94,16.99,31.11,17.9
			c45.28,1.2,80.76-17.22,83.92-18.58c3.16-1.36,0.07-24.37,1.88-51.15c1.51-22.3,4.22-34.01,5.2-59.54
			c0.68-17.85,1.81-37.97,1.81-37.97l-37.52-15.37c0,0-7.03,24.12-26.52,19.84C352.54,256.82,357.25,240.88,357.25,240.88z"></path>
      <g>
        <g>
          <g>
            <path fill="#DF867F" d="M230.52,301.75c0,0,8.24,22.35,20.09,38.77c4.61,6.36,7.84,13.01,13.14,14.58
						c16.99-20.72,3.34-39.13,3.34-39.13s-12.94-15.89-25.08-27.84c0,0-3.12-0.52-8.44,1.75
						C228.24,292.15,230.52,301.75,230.52,301.75z"></path>
            <path fill="#D65B6C" d="M263.75,355.1c8.38,2.49,14.8-0.91,18.05-3.35c5.14-3.86,32.38-35.57,32.38-35.57l7.98-30.24
						c-4.83-2.32,0.04-36.16-7.7-38.06c-7.44,1.98-17.9,16.44-27.11,31.52c-5.83,9.55-6.43,17.22-13.93,24.43
						c-4.84,4.66-6.1,11.89-6.33,12.13C267.09,315.98,280.75,334.37,263.75,355.1z"></path>
            <path fill="none" stroke="#2E344D" stroke-linecap="round" stroke-linejoin="round" stroke-miterlimit="10" stroke-width=".565" d="
						M308.83,322.09c0,0-2.2-17.71-1.51-27.73"></path>
          </g>
          <g>
            <g>
              <path fill="#DF867F" d="M242.02,288.13c0,0-4.67-8.9-7.47-10.84c-2.8-1.94-6.55-4.13-9.72-6.08c-3.16-1.95-5.11-4.55-6.47-2.2
							c-1.37,2.35,6,8.42,6,8.42s-5.27-1.39-11.14-5.34s-12.45-9.03-13.53-7.35c-1.08,1.68-0.98,2.58-0.98,2.58
							s-2.93-1.08-3.79,0.21s1.1,3.68,1.1,3.68s-1.88,1.68-1.55,2.92s7.45,9.63,13.99,14.06c0,0-12.01-7.09-12.29-6.42
							s0.91,4.2,9.94,9.56c9.03,5.36,24.76,10.75,24.76,10.75L242.02,288.13z"></path>
              <path fill="none" stroke="#2E344D" stroke-linecap="round" stroke-linejoin="round" stroke-miterlimit="10" stroke-width=".565" d="M196.02 271.2c0 0 4.19 4.19 8.83 7.7 4.64 3.52 11.12 8.07 11.12 8.07M198.7 267.31c0 0 11.01 8.3 20.09 14.66"></path>
            </g>
          </g>
        </g>
        <path fill="none" stroke="#2E344D" stroke-linecap="round" stroke-linejoin="round" stroke-miterlimit="10" stroke-width=".565" d="
				M267.09,315.98c0,0,7.64,5.3,9.79,11.92"></path>
      </g>
      <path fill="#2E344D" d="M310.14,306.88c56.15,8.51,111.22,1.64,111.22,1.64v-17.01c0,0-55.06,6.87-111.22-1.64V306.88z"></path>
      <path fill="#D65B6C" d="M339.17,242.92c0,0,1.66,40.15,1.96,63.05s-6.33,57.55-6.33,78.35c0,15.59,1.61,29.36,0,37.7
			c-0.54,2.78-2.6,5.54-4.75,8.81c-1.98,3.03-26.44-3.84-26.33-6.78c0.12-3.06-0.38-8.59-0.23-10.73
			c0.85-11.68,8.19-35.82,8.7-54.92c0.36-13.42-5.41-41.04-4.88-68.44c0.36-18.73,7.14-42.08,7.14-42.08
			S330.73,242.84,339.17,242.92z"></path>
      <path fill="#2E344D" d="M445.91,408.9c0,0-5.8,1.93-4.67-9.37c1.13-11.3,18.31-32.77,18.31-32.77s5.65,25.31,5.65,26.22
			s-11.19,13.22-11.19,13.22L445.91,408.9z"></path>
      <path fill="#D65B6C" d="M433.03,255.95c0,0,19.81,15.55,23.43,44.18c3.62,28.63,13.03,35.45,15.52,64.6
			c0.95,11.11-1.05,43.57-26.06,44.18c0,0,15.57-8.79,12.13-27.27c-2.15-11.53-23.96-6.21-23.96-6.21l-16.05-53.67l-0.68-39.32
			L433.03,255.95z"></path>
      <path fill="#D65B6C" d="M406.21,244.5c0,0-4.07,28.48-6.33,54.69s-0.9,40.68-1.36,61.92c-0.38,17.76-4.92,49.14-4.97,61.47
			c-0.01,2.42,2.04,6.79,2.26,7.23c1.36,2.71,29.39,1.36,31.64-6.4c0.83-2.86,2.11-3.33,2.26-6.25c0.86-16.28-4.18-56.74-2.26-78.19
			c2.26-25.31,5.57-83.02,5.57-83.02S417.4,246.98,406.21,244.5z"></path>
      <path fill="none" stroke="#2E344D" stroke-linecap="round" stroke-miterlimit="10" stroke-width=".8" d="M427.23,350.72
			c0,0,0.23-31.64-0.9-45.65c-1.13-14.01,0-27.35,0-27.35"></path>
      <g>
        <polygon fill="#FFF" points="415.19 401.96 455.33 319.83 398 335.5 359.81 415.14"></polygon>
        <path fill="#DF867F" d="M418.69,374.4c0,0-4.71-8.28-7.51-11.33c-2.8-3.06-11.84-7.51-13.37-5.35
				c-1.53,2.16,3.82,10.31,3.82,10.31s-11.84,2.55-14.39,1.4s-4.07-8.28-5.98-8.4c-1.91-0.13-3.06,5.35-3.06,5.35
				s-3.18-0.25-4.27,3.88c0,0-2.1,0.89-1.66,6.49c0,0-2.74,2.04-2.55,4.97s3.12,7.26,7.19,7.96c4.07,0.7,22.85-2.36,24.7-2.23
				c1.85,0.13,7.77,3.06,7.77,3.06L418.69,374.4z"></path>
        <path fill="none" stroke="#2E344D" stroke-linecap="round" stroke-miterlimit="10" stroke-width=".676" d="M378.21,366.38
				c0,0,0.83,7.38,4.9,9.87s13.62,1.08,13.62,1.08"></path>
        <path fill="none" stroke="#2E344D" stroke-linecap="round" stroke-miterlimit="10" stroke-width=".676" d="M373.94 370.26c0 0 .45 7.51 4.9 9.93s14.58 2.55 14.58 2.55M372.29 376.76c0 0 .32 4.71 3.82 7.45s14 2.23 14 2.23"></path>
      </g>
      <path fill="#DF867F" d="M408.78,390.23c0,0,25.99,14.23,33.21,15.13c3.58,0.45,7.44-0.77,10.42-2.11
			c3.79-4.47,7.48-11.63,5.63-21.62c-2.11-11.35-23.31-6.37-23.94-6.23c-0.01,0.01-0.02,0.01-0.02,0.01l-15.39-1.02L408.78,390.23z"></path>
      <path fill="none" stroke="#2E344D" stroke-linecap="round" stroke-miterlimit="10" stroke-width=".8" d="M434.08,375.42
			c0,0,23.66-7.07,27.72-3.46"></path>
      <path fill="none" stroke="#2E344D" stroke-linecap="round" stroke-miterlimit="10" stroke-width=".4" d="M305.19 417.39c0 0 12.77 5.08 25.65 5.65M394.8 421.68c0 0 17.85 1.36 32.09-2.82"></path>
      <line x1="306.41" x2="306.15" y1="420.52" y2="424.73" fill="none" stroke="#2E344D" stroke-linecap="round" stroke-miterlimit="10" stroke-width=".4"></line>
      <line x1="310.42" x2="310.16" y1="421.59" y2="425.8" fill="none" stroke="#2E344D" stroke-linecap="round" stroke-miterlimit="10" stroke-width=".4"></line>
      <line x1="315.39" x2="315.14" y1="422.72" y2="426.93" fill="none" stroke="#2E344D" stroke-linecap="round" stroke-miterlimit="10" stroke-width=".4"></line>
      <line x1="321.46" x2="320.39" y1="424.11" y2="428.12" fill="none" stroke="#2E344D" stroke-linecap="round" stroke-miterlimit="10" stroke-width=".4"></line>
      <line x1="326.72" x2="325.65" y1="425.13" y2="429.14" fill="none" stroke="#2E344D" stroke-linecap="round" stroke-miterlimit="10" stroke-width=".4"></line>
      <line x1="400.22" x2="400.79" y1="424.96" y2="428.8" fill="none" stroke="#2E344D" stroke-linecap="round" stroke-miterlimit="10" stroke-width=".4"></line>
      <line x1="406.33" x2="406.89" y1="424.35" y2="428.2" fill="none" stroke="#2E344D" stroke-linecap="round" stroke-miterlimit="10" stroke-width=".4"></line>
      <line x1="412.32" x2="412.39" y1="423.56" y2="427.37" fill="none" stroke="#2E344D" stroke-linecap="round" stroke-miterlimit="10" stroke-width=".4"></line>
      <line x1="418.87" x2="418.87" y1="423.04" y2="426.92" fill="none" stroke="#2E344D" stroke-linecap="round" stroke-miterlimit="10" stroke-width=".4"></line>
      <line x1="423.69" x2="423.69" y1="421.68" y2="425.26" fill="none" stroke="#2E344D" stroke-linecap="round" stroke-miterlimit="10" stroke-width=".4"></line>
    </g>
    <g>
      <path fill="#FFF" stroke="#2E344D" stroke-miterlimit="10" stroke-width="1.33" d="M324.74 284.96h-128.2c-3.66 0-6.9-2.97-7.24-6.62l-3.44-37.17c-.34-3.66 2.35-6.62 6.01-6.62h128.2c3.66 0 6.9 2.97 7.24 6.62l3.44 37.17C331.09 281.99 328.4 284.96 324.74 284.96zM176.13 284.96h-43.32c-2.2 0-4.15-1.79-4.36-3.99l-3.93-42.44c-.2-2.2 1.42-3.99 3.62-3.99h43.32c2.2 0 4.15 1.79 4.36 3.99l3.93 42.44C179.96 283.17 178.34 284.96 176.13 284.96z"></path>
      <g>
        <ellipse cx="211.86" cy="251.55" fill="#2E344D" rx="8.82" ry="9.68" transform="rotate(-46.325 211.856 251.536)"></ellipse>
        <path fill="#2E344D" d="M227.19,277.19h-25.91l-0.76-8.24c-0.25-2.7,1.74-4.89,4.44-4.89h16.13c2.7,0,5.09,2.19,5.34,4.89
				L227.19,277.19z"></path>
      </g>
      <g>
        <polygon fill="#2E344D" points="317.86 254.36 234.62 254.36 234.35 251.48 317.59 251.48"></polygon>
        <polygon fill="#2E344D" points="301.31 268.02 235.88 268.02 235.62 265.14 301.04 265.14"></polygon>
      </g>
      <polyline fill="none" stroke="#EFBF50" stroke-miterlimit="10" stroke-width="3.547" points="142.31 258.88 146.68 269.98 165.04 252.29"></polyline>
    </g>
    <g>
      <path fill="none" stroke="#2E344D" stroke-miterlimit="10" stroke-width="1.774" d="M311.67,75.86
			c17.15,0,31.05,13.9,31.05,31.05c0,6.02-1.74,11.62-4.71,16.38l6,15.86l-16.07-5.84c-4.74,2.93-10.3,4.64-16.27,4.64
			c-17.15,0-31.05-13.9-31.05-31.05S294.52,75.86,311.67,75.86z"></path>
      <polyline fill="none" stroke="#EFBF50" stroke-miterlimit="10" stroke-width="3.547" points="297.65 104.07 303.49 117.92 326.86 94.89"></polyline>
    </g>
  </g>
</svg>
